<?xml version="1.0" encoding="iso-8859-1"?>
<!-- Generator: Adobe Illustrator 19.1.0, SVG Export Plug-In . SVG Version: 6.00 Build 0)  -->
<svg version="1.1" id="Capa_1" xmlns="http://www.w3.org/2000/svg" xmlns:xlink="http://www.w3.org/1999/xlink" x="0px" y="0px"
	 viewBox="0 0 31.177 31.177" style="enable-background:new 0 0 31.177 31.177;" xml:space="preserve">
<g>
	<g>
		<path style="fill:#010002;" d="M30.252,1.775H0.969c-0.49,0-0.887-0.398-0.887-0.888S0.479,0,0.969,0h29.284
			c0.49,0,0.887,0.398,0.887,0.888S30.743,1.775,30.252,1.775z"/>
	</g>
	<g>
		<path style="fill:#010002;" d="M24.692,9.126H6.53c-0.49,0-0.887-0.398-0.887-0.888c0-0.49,0.397-0.888,0.887-0.888h18.162
			c0.49,0,0.887,0.397,0.887,0.888C25.579,8.729,25.182,9.126,24.692,9.126z"/>
	</g>
	<g>
		<path style="fill:#010002;" d="M30.252,16.477H0.969c-0.49,0-0.887-0.398-0.887-0.888c0-0.49,0.397-0.888,0.887-0.888h29.284
			c0.49,0,0.887,0.397,0.887,0.888C31.14,16.079,30.743,16.477,30.252,16.477z"/>
	</g>
	<g>
		<path style="fill:#010002;" d="M24.692,23.826H6.53c-0.49,0-0.887-0.396-0.887-0.887c0-0.49,0.397-0.888,0.887-0.888h18.162
			c0.49,0,0.887,0.397,0.887,0.888C25.579,23.43,25.182,23.826,24.692,23.826z"/>
	</g>
	<g>
		<path style="fill:#010002;" d="M30.208,31.177H0.924c-0.49,0-0.887-0.396-0.887-0.887c0-0.49,0.397-0.888,0.887-0.888h29.284
			c0.49,0,0.888,0.398,0.888,0.888C31.096,30.78,30.698,31.177,30.208,31.177z"/>
	</g>
</g>
<g>
</g>
<g>
</g>
<g>
</g>
<g>
</g>
<g>
</g>
<g>
</g>
<g>
</g>
<g>
</g>
<g>
</g>
<g>
</g>
<g>
</g>
<g>
</g>
<g>
</g>
<g>
</g>
<g>
</g>
</svg>
